<svg width="32" height="32" viewBox="0 0 32 32" fill="none" xmlns="http://www.w3.org/2000/svg">
<path d="M8.66662 9.33337C10.6151 7.38491 12.7913 5.89202 14.2633 4.98787C15.3361 4.32891 16.6638 4.32891 17.7366 4.98788C19.2086 5.89202 21.3848 7.38491 23.3333 9.33337C27.5578 13.5579 27.3333 16 27.3333 20C27.3333 21.8798 27.1861 23.4651 27.03 24.6176C26.8658 25.8301 25.8082 26.6667 24.5846 26.6667H22.6666C21.1939 26.6667 20 25.4728 20 24V21.3334C20 20.2725 19.5785 19.2551 18.8284 18.5049C18.0782 17.7548 17.0608 17.3334 16 17.3334C14.9391 17.3334 13.9217 17.7548 13.1715 18.5049C12.4214 19.2551 12 20.2725 12 21.3334V24C12 25.4728 10.806 26.6667 9.33329 26.6667H7.41536C6.19171 26.6667 5.13415 25.8301 4.96993 24.6176C4.81385 23.4651 4.66662 21.8798 4.66662 20C4.66662 16 4.44209 13.5579 8.66662 9.33337Z" stroke="#FF4201" stroke-width="2.18293" stroke-linecap="round" stroke-linejoin="round"/>
</svg>
