<svg width="20" height="20" viewBox="0 0 20 20" fill="none" xmlns="http://www.w3.org/2000/svg">
<path d="M3.988 4.16628H15.1875C16.3251 4.16628 17.1284 5.28078 16.7687 6.36L15.3798 10.5267C15.1529 11.2072 14.516 11.6663 13.7986 11.6663H5.05943M3.988 4.16628L3.95434 3.93058C3.83704 3.1095 3.13384 2.49962 2.30442 2.49962H1.66658M3.988 4.16628L5.05943 11.6663M5.05943 11.6663L5.21216 12.7353C5.32945 13.5564 6.03265 14.1663 6.86207 14.1663H14.1666M14.1666 14.1663C13.2461 14.1663 12.4999 14.9125 12.4999 15.8329C12.4999 16.7534 13.2461 17.4996 14.1666 17.4996C15.087 17.4996 15.8332 16.7534 15.8332 15.8329C15.8332 14.9125 15.087 14.1663 14.1666 14.1663ZM9.16658 15.8329C9.16658 16.7534 8.42039 17.4996 7.49991 17.4996C6.57944 17.4996 5.83325 16.7534 5.83325 15.8329C5.83325 14.9125 6.57944 14.1663 7.49991 14.1663C8.42039 14.1663 9.16658 14.9125 9.16658 15.8329Z" stroke="white" stroke-width="1.36656" stroke-linecap="round" stroke-linejoin="round"/>
</svg>
