<svg width="18" height="18" viewBox="0 0 18 18" fill="none" xmlns="http://www.w3.org/2000/svg">
<path d="M12.2081 17.6522C13.9923 18.6287 15.5614 17.4451 15.2201 15.3737L14.6074 11.6545L17.2028 9.02058C18.6463 7.55569 18.0499 5.63624 16.0523 5.33403L12.4656 4.79141L10.8695 1.4243C9.97543 -0.461789 8.03419 -0.482075 7.13845 1.40757L5.53441 4.79141L1.94767 5.33403C-0.0471173 5.63581 -0.648315 7.55362 0.797166 9.02058L3.39255 11.6545L2.77987 15.3737C2.43912 17.4422 4.00521 18.6301 5.79193 17.6522L9 15.8962L12.2081 17.6522Z" fill="#FFBA00"/>
<mask id="mask0_16_1447" style="mask-type:luminance" maskUnits="userSpaceOnUse" x="0" y="0" width="18" height="18">
<path d="M12.2081 17.6522C13.9923 18.6287 15.5614 17.4451 15.2201 15.3737L14.6074 11.6545L17.2028 9.02058C18.6463 7.55569 18.0499 5.63624 16.0523 5.33403L12.4656 4.79141L10.8695 1.4243C9.97543 -0.461789 8.03419 -0.482075 7.13845 1.40757L5.53441 4.79141L1.94767 5.33403C-0.0471173 5.63581 -0.648315 7.55362 0.797166 9.02058L3.39255 11.6545L2.77987 15.3737C2.43912 17.4422 4.00521 18.6301 5.79193 17.6522L9 15.8962L12.2081 17.6522Z" fill="white"/>
</mask>
<g mask="url(#mask0_16_1447)">
</g>
</svg>
