<svg width="45" height="28" viewBox="0 0 45 28" fill="none" xmlns="http://www.w3.org/2000/svg">
<path d="M16.4166 2.97463H28.5839V24.8373H16.4166V2.97463Z" fill="#B27BFF"/>
<path d="M17.1889 13.9056C17.1889 9.4636 19.2747 5.5236 22.4806 2.97418C20.1246 1.12013 17.1504 0 13.9058 0C6.2188 0 0 6.2188 0 13.9056C0 21.5922 6.2188 27.8112 13.9056 27.8112C17.1502 27.8112 20.1244 26.6911 22.4806 24.8368C19.2747 22.3261 17.1889 18.3476 17.1889 13.9056Z" fill="#9E59FF"/>
<path d="M44.9998 13.9056C44.9998 21.5922 38.781 27.8112 31.0942 27.8112C27.8496 27.8112 24.8754 26.6911 22.5192 24.8368C25.7638 22.2876 27.8111 18.3476 27.8111 13.9056C27.8111 9.4636 25.7251 5.5236 22.5192 2.97418C24.8752 1.12013 27.8496 0 31.0942 0C38.781 0 45 6.25751 45 13.9056H44.9998Z" fill="#9E59FF"/>
</svg>
