<svg width="25" height="25" viewBox="0 0 25 25" fill="none" xmlns="http://www.w3.org/2000/svg">
<path d="M5.12387 5.96563C7.0837 4.0058 9.27266 2.5042 10.7532 1.59478C11.8323 0.931973 13.1677 0.931974 14.2468 1.59478C15.7273 2.5042 17.9163 4.0058 19.8761 5.96563C24.1253 10.2148 23.8994 12.6712 23.8994 16.6945C23.8994 18.5853 23.7514 20.1798 23.5944 21.339C23.4292 22.5586 22.3655 23.4001 21.1347 23.4001H19.2056C17.7242 23.4001 16.5233 22.1992 16.5233 20.7179V18.0356C16.5233 16.9686 16.0994 15.9452 15.3449 15.1907C14.5904 14.4362 13.567 14.0123 12.5 14.0123C11.4329 14.0123 10.4096 14.4362 9.65506 15.1907C8.90054 15.9452 8.47665 16.9686 8.47665 18.0356V20.7179C8.47665 22.1992 7.27578 23.4001 5.79443 23.4001H3.86531C2.63453 23.4001 1.5708 22.5586 1.40562 21.339C1.24863 20.1798 1.10054 18.5852 1.10054 16.6945C1.10054 12.6712 0.874701 10.2148 5.12387 5.96563Z" stroke="#C9C5C4" stroke-width="2.18293" stroke-linecap="round" stroke-linejoin="round"/>
</svg>
