<svg width="30" height="21" viewBox="0 0 30 21" fill="none" xmlns="http://www.w3.org/2000/svg">
<path fill-rule="evenodd" clip-rule="evenodd" d="M2.44839 21C1.09618 21 0 19.9385 0 18.629L0 2.37097C0 1.06152 1.09618 0 2.44839 0L27.5568 0C29.0313 0 29.844 1.65841 28.9116 2.76451L26.388 5.75806L29.4826 9.42904C30.0081 10.0524 30.0081 10.9476 29.4826 11.571L26.388 15.2419L28.9116 18.2355C29.844 19.3416 29.0313 21 27.5568 21L2.44839 21ZM2.09862 18.629C2.09862 18.8161 2.25521 18.9677 2.44839 18.9677H26.8198L24.5818 16.3129C24.0563 15.6896 24.0563 14.7943 24.5818 14.171L27.6763 10.5L24.5818 6.82902C24.0563 6.20571 24.0563 5.31042 24.5818 4.6871L26.8198 2.03226L2.44839 2.03226C2.25522 2.03226 2.09862 2.1839 2.09862 2.37097L2.09862 18.629Z" fill="#FF4201"/>
<path fill-rule="evenodd" clip-rule="evenodd" d="M9.44426 16.935C8.86474 16.935 8.39495 16.48 8.39495 15.9188L8.39495 5.08011C8.39495 4.51892 8.86474 4.06398 9.44426 4.06398C10.0238 4.06398 10.4936 4.51892 10.4936 5.08011L10.4936 15.9188C10.4936 16.48 10.0238 16.935 9.44426 16.935Z" fill="#FF4201"/>
<path fill-rule="evenodd" clip-rule="evenodd" d="M13.6411 16.935C13.0616 16.935 12.5918 16.48 12.5918 15.9188L12.5918 5.08011C12.5918 4.51892 13.0616 4.06398 13.6411 4.06398C14.2206 4.06398 14.6904 4.51892 14.6904 5.08011L14.6904 15.9188C14.6904 16.48 14.2206 16.935 13.6411 16.935Z" fill="#FF4201"/>
<path fill-rule="evenodd" clip-rule="evenodd" d="M17.838 16.935C17.2584 16.935 16.7886 16.48 16.7886 15.9188V5.08011C16.7886 4.51892 17.2584 4.06398 17.838 4.06398C18.4175 4.06398 18.8873 4.51892 18.8873 5.08011V15.9188C18.8873 16.48 18.4175 16.935 17.838 16.935Z" fill="#FF4201"/>
</svg>
