<svg width="32" height="32" viewBox="0 0 32 32" fill="none" xmlns="http://www.w3.org/2000/svg">
<path d="M16 26.6668C16 26.6668 28 21.3335 28 12.9522C28 8.00016 25.2864 5.3335 21.9391 5.3335C20.3316 5.3335 18.79 5.9957 17.6534 7.17444L16.9598 7.89371C16.4355 8.43747 15.5645 8.43747 15.0402 7.89371L14.3466 7.17445C13.21 5.99571 11.6684 5.3335 10.0609 5.3335C6.66667 5.3335 4 8.00016 4 12.9522C4 21.3335 16 26.6668 16 26.6668Z" fill="#FF4200"/>
<path d="M10.7211 12.0585L10.7211 12.0585C13.605 15.0492 18.395 15.0492 21.2789 12.0585L16.9598 7.89371L21.2789 12.0585L21.8108 11.5069C21.902 11.7779 22 12.2359 22 12.9522C22 14.2493 20.9522 16.124 18.27 18.2528C17.4985 18.8651 16.7128 19.3996 16 19.8429C15.2872 19.3996 14.5015 18.8651 13.73 18.2528C11.0478 16.124 10 14.2493 10 12.9522C10 12.2357 10.0951 11.7756 10.1841 11.5016L10.7211 12.0585Z" stroke="#FF4201" stroke-width="12" stroke-linecap="round" stroke-linejoin="round"/>
</svg>
