<svg width="27" height="27" viewBox="0 0 27 27" fill="none" xmlns="http://www.w3.org/2000/svg">
<path d="M4.899 3.83091H23.166C25.0215 3.83091 26.3317 5.6487 25.7449 7.40896L23.4796 14.205C23.1096 15.3151 22.0707 16.0638 20.9007 16.0638H6.64656M4.899 3.83091L4.84409 3.44646C4.65277 2.10724 3.50582 1.11249 2.153 1.11249H1.11264M4.899 3.83091L6.64656 16.0638M6.64656 16.0638L6.89566 17.8074C7.08698 19.1467 8.23393 20.1414 9.58676 20.1414H21.5008M21.5008 20.1414C19.9994 20.1414 18.7824 21.3585 18.7824 22.8598C18.7824 24.3612 19.9994 25.5783 21.5008 25.5783C23.0021 25.5783 24.2192 24.3612 24.2192 22.8598C24.2192 21.3585 23.0021 20.1414 21.5008 20.1414ZM13.3455 22.8598C13.3455 24.3612 12.1284 25.5783 10.6271 25.5783C9.12577 25.5783 7.90869 24.3612 7.90869 22.8598C7.90869 21.3585 9.12577 20.1414 10.6271 20.1414C12.1284 20.1414 13.3455 21.3585 13.3455 22.8598Z" stroke="#C9C5C4" stroke-width="2.18293" stroke-linecap="round" stroke-linejoin="round"/>
</svg>
