<svg width="58" height="66" viewBox="0 0 58 66" fill="none" xmlns="http://www.w3.org/2000/svg">
<path d="M31.8045 63.8063C45.675 56.5256 56.5 44.4684 56.5 29.8086C56.5 14.1742 44.1878 1.5 29 1.5C13.8122 1.5 1.5 14.1742 1.5 29.8086C1.5 44.4684 12.325 56.5256 26.1955 63.8063C27.9577 64.7312 30.0423 64.7312 31.8045 63.8063Z" fill="#1A0700"/>
<path d="M39.3125 29.8086C39.3125 35.6715 34.6954 40.4243 29 40.4243C23.3046 40.4243 18.6875 35.6715 18.6875 29.8086C18.6875 23.9457 23.3046 19.1929 29 19.1929C34.6954 19.1929 39.3125 23.9457 39.3125 29.8086Z" fill="#1A0700"/>
<path d="M31.8045 63.8063C45.675 56.5256 56.5 44.4684 56.5 29.8086C56.5 14.1742 44.1878 1.5 29 1.5C13.8122 1.5 1.5 14.1742 1.5 29.8086C1.5 44.4684 12.325 56.5256 26.1955 63.8063C27.9577 64.7312 30.0423 64.7312 31.8045 63.8063Z" stroke="white" stroke-width="3" stroke-linecap="round" stroke-linejoin="round"/>
<path d="M39.3125 29.8086C39.3125 35.6715 34.6954 40.4243 29 40.4243C23.3046 40.4243 18.6875 35.6715 18.6875 29.8086C18.6875 23.9457 23.3046 19.1929 29 19.1929C34.6954 19.1929 39.3125 23.9457 39.3125 29.8086Z" stroke="white" stroke-width="3" stroke-linecap="round" stroke-linejoin="round"/>
</svg>
