<svg width="428" height="849" viewBox="0 0 428 849" fill="none" xmlns="http://www.w3.org/2000/svg">
<g clip-path="url(#clip0_30_113)">
<rect width="428" height="849" fill="#F3F5F6"/>
<path d="M-147.013 25.2666L582.154 39.2732" stroke="#F6F3F5" stroke-width="65.7627"/>
<path d="M209.743 507.808L357.499 596.928" stroke="#F6F3F5" stroke-width="65.7627"/>
<path d="M-3.37721 574.683L-130.398 652.131L-181.618 680.007" stroke="#F8F6F8" stroke-width="65.7627"/>
<path d="M-3.65168 575.369L-161.432 675.338" stroke="white" stroke-width="21.9209"/>
<path d="M-132.045 887.633L263.023 878.296L306.416 833.392L324.954 734.247L425.747 300.455" stroke="#F6F3F5" stroke-width="65.7627"/>
<path d="M424.785 -53.2803L625.684 147.618" stroke="white" stroke-width="10.9605"/>
<path d="M75.582 -12.4961L-132.045 429.123L30.6785 611.715M311.085 926.357L89.5199 677.74M512.395 746.606L89.5886 974.419M89.5199 677.74L30.6785 611.715M89.5199 677.74L228.178 481.339M366.837 284.938L228.178 481.339M30.6785 611.715L241.327 244.703M47.7061 376.393L228.178 481.339" stroke="white" stroke-width="10.9605"/>
<path d="M94.12 193.62L46.1269 383.396M-3.1022 577.154L46.1269 383.396M-62.2869 292.765L46.1269 383.396" stroke="white" stroke-width="21.9209"/>
<path d="M303.258 858.247L422.588 300.455" stroke="white" stroke-width="21.9209"/>
<path d="M-94.008 639.085L-16.6285 763.222M60.7511 887.359L-16.6285 763.222M-16.6285 763.222L136.277 735.071" stroke="white" stroke-width="10.9605"/>
<path d="M211.116 512.613L359.421 592.671" stroke="white" stroke-width="21.9209"/>
<path d="M399.244 36.252L420.94 314.187" stroke="white" stroke-width="21.9209"/>
<path d="M89.4511 205.842L167.174 26.0908" stroke="white" stroke-width="10.9605"/>
<path d="M-157.998 24.7178L547 40.0976H592.865" stroke="white" stroke-width="21.9209"/>
<path d="M289.388 -24.4424L256.844 241.958L-152.231 118.095L512.395 319.406" stroke="white" stroke-width="21.9209"/>
</g>
<defs>
<clipPath id="clip0_30_113">
<rect width="428" height="849" fill="white"/>
</clipPath>
</defs>
</svg>
