<svg width="23" height="16" viewBox="0 0 23 16" fill="none" xmlns="http://www.w3.org/2000/svg">
<path fill-rule="evenodd" clip-rule="evenodd" d="M1.86544 16C0.835185 16 0 15.1912 0 14.1935L0 1.80645C0 0.808777 0.835185 0 1.86544 0L20.9957 0C22.1191 0 22.7383 1.26355 22.0279 2.10629L20.1052 4.3871L22.4629 7.18403C22.8633 7.65894 22.8633 8.34106 22.4629 8.81597L20.1052 11.6129L22.0279 13.8937C22.7383 14.7364 22.1191 16 20.9957 16L1.86544 16ZM1.59895 14.1935C1.59895 14.3361 1.71826 14.4516 1.86544 14.4516L20.4341 14.4516L18.729 12.4289C18.3286 11.954 18.3286 11.2718 18.729 10.7969L21.0867 8L18.729 5.20307C18.3286 4.72816 18.3286 4.04603 18.729 3.57113L20.4341 1.54839L1.86544 1.54839C1.71826 1.54839 1.59895 1.66393 1.59895 1.80645L1.59895 14.1935Z" fill="#C9C5C4"/>
<path fill-rule="evenodd" clip-rule="evenodd" d="M7.19539 12.9032C6.75385 12.9032 6.39592 12.5566 6.39592 12.129L6.39592 3.87097C6.39592 3.44339 6.75385 3.09677 7.19539 3.09677C7.63693 3.09677 7.99486 3.44339 7.99486 3.87097L7.99486 12.129C7.99486 12.5566 7.63693 12.9032 7.19539 12.9032Z" fill="#C9C5C4"/>
<path fill-rule="evenodd" clip-rule="evenodd" d="M10.3932 12.9032C9.95169 12.9032 9.59375 12.5566 9.59375 12.129L9.59375 3.87097C9.59375 3.44339 9.95169 3.09677 10.3932 3.09677C10.8348 3.09677 11.1927 3.44339 11.1927 3.87097V12.129C11.1927 12.5566 10.8348 12.9032 10.3932 12.9032Z" fill="#C9C5C4"/>
<path fill-rule="evenodd" clip-rule="evenodd" d="M13.5912 12.9032C13.1496 12.9032 12.7917 12.5566 12.7917 12.129L12.7917 3.87097C12.7917 3.44339 13.1496 3.09677 13.5912 3.09677C14.0327 3.09677 14.3907 3.44339 14.3907 3.87097V12.129C14.3907 12.5566 14.0327 12.9032 13.5912 12.9032Z" fill="#C9C5C4"/>
</svg>
