<svg width="51" height="41" viewBox="0 0 51 41" fill="none" xmlns="http://www.w3.org/2000/svg">
<path d="M18.6056 3.37112H32.3953V28.1488H18.6056V3.37112Z" fill="#FF4201"/>
<path d="M9.28103 40.6202V37.9937C9.28103 36.9866 8.66802 36.3301 7.61729 36.3301C7.09203 36.3301 6.5229 36.5052 6.12885 37.0744C5.82255 36.5928 5.38483 36.3301 4.72815 36.3301C4.29023 36.3301 3.85271 36.4614 3.50234 36.943V36.4177H2.58303V40.6202H3.50234V38.3C3.50234 37.556 3.89638 37.2056 4.50939 37.2056C5.122 37.2056 5.4287 37.5996 5.4287 38.3V40.6202H6.34801V38.3C6.34801 37.556 6.78553 37.2056 7.35466 37.2056C7.96767 37.2056 8.27397 37.5996 8.27397 38.3V40.6202H9.28103ZM22.8954 36.4177H21.4071V35.1482H20.4878V36.4177H19.6561V37.2493H20.4876V39.1756C20.4876 40.1388 20.8817 40.7077 21.9324 40.7077C22.3264 40.7077 22.764 40.5765 23.0707 40.4014L22.8078 39.6133C22.5452 39.7884 22.2389 39.8323 22.0199 39.8323C21.5822 39.8323 21.4071 39.5697 21.4071 39.1317V37.2493H22.8954V36.4177ZM30.6878 36.3299C30.1625 36.3299 29.8123 36.5928 29.5934 36.943V36.4177H28.6741V40.6202H29.5934V38.2563C29.5934 37.556 29.8997 37.1619 30.4688 37.1619C30.6439 37.1619 30.8629 37.2058 31.038 37.2495L31.3006 36.374C31.1255 36.3301 30.8629 36.3301 30.6878 36.3301V36.3299ZM18.9118 36.7679C18.4739 36.4614 17.8611 36.3301 17.2044 36.3301C16.1539 36.3301 15.4536 36.8554 15.4536 37.6872C15.4536 38.3877 15.9788 38.7816 16.8981 38.913L17.3359 38.9569C17.8174 39.0442 18.0801 39.1756 18.0801 39.3946C18.0801 39.7009 17.7299 39.9198 17.1169 39.9198C16.5041 39.9198 16.0225 39.7009 15.716 39.4821L15.2783 40.1825C15.7599 40.5326 16.4165 40.7077 17.073 40.7077C18.2988 40.7077 18.9994 40.1388 18.9994 39.3507C18.9994 38.6065 18.4302 38.2124 17.5546 38.0812L17.1169 38.0373C16.7228 37.9935 16.4165 37.9061 16.4165 37.6435C16.4165 37.337 16.7228 37.1619 17.2044 37.1619C17.7299 37.1619 18.2552 37.3807 18.5178 37.5121L18.9118 36.7679ZM43.3394 36.3301C42.8139 36.3301 42.4637 36.5928 42.2448 36.943V36.4177H41.3255V40.6202H42.2448V38.2563C42.2448 37.556 42.5513 37.1619 43.1202 37.1619C43.2955 37.1619 43.5144 37.2058 43.6895 37.2495L43.9522 36.374C43.7771 36.3301 43.5144 36.3301 43.3394 36.3301ZM31.6071 38.5189C31.6071 39.7884 32.4825 40.7077 33.8398 40.7077C34.4526 40.7077 34.8903 40.5765 35.328 40.2263L34.8903 39.4821C34.5401 39.7448 34.1899 39.876 33.7959 39.876C33.0517 39.876 32.5264 39.3507 32.5264 38.5189C32.5264 37.731 33.0517 37.2056 33.7959 37.1619C34.1899 37.1619 34.5401 37.2931 34.8903 37.556L35.328 36.8117C34.8903 36.4614 34.4526 36.3301 33.8398 36.3301C32.4825 36.3301 31.6071 37.2495 31.6071 38.5189ZM40.0998 38.5189V36.4177H39.1805V36.943C38.874 36.5491 38.4363 36.3301 37.8672 36.3301C36.6852 36.3301 35.7659 37.2495 35.7659 38.5189C35.7659 39.7884 36.6852 40.7077 37.8672 40.7077C38.48 40.7077 38.9179 40.489 39.1805 40.0949V40.6202H40.0998V38.5189ZM36.7289 38.5189C36.7289 37.7747 37.2105 37.1619 37.9984 37.1619C38.7426 37.1619 39.2681 37.731 39.2681 38.5189C39.2681 39.2632 38.7426 39.876 37.9984 39.876C37.2105 39.8321 36.7289 39.2632 36.7289 38.5189ZM25.7411 36.3301C24.5152 36.3301 23.6396 37.2056 23.6396 38.5189C23.6396 39.8323 24.515 40.7077 25.7847 40.7077C26.3975 40.7077 27.0105 40.5326 27.4921 40.1388L27.0542 39.4821C26.704 39.7448 26.2663 39.9198 25.8286 39.9198C25.2595 39.9198 24.6903 39.6572 24.5589 38.9128H27.6672V38.5628C27.7111 37.2056 26.923 36.3301 25.7409 36.3301H25.7411ZM25.7411 37.118C26.31 37.118 26.7042 37.4684 26.7916 38.1251H24.6028C24.6903 37.556 25.0844 37.118 25.7411 37.118ZM48.5487 38.5189V34.7542H47.6294V36.943C47.3229 36.5491 46.8852 36.3301 46.316 36.3301C45.1341 36.3301 44.2148 37.2495 44.2148 38.5189C44.2148 39.7884 45.1341 40.7077 46.316 40.7077C46.9291 40.7077 47.3668 40.489 47.6294 40.0949V40.6202H48.5487V38.5189ZM45.178 38.5189C45.178 37.7747 45.6594 37.1619 46.4475 37.1619C47.1917 37.1619 47.7169 37.731 47.7169 38.5189C47.7169 39.2632 47.1917 39.876 46.4475 39.876C45.6594 39.8321 45.178 39.2632 45.178 38.5189ZM14.4465 38.5189V36.4177H13.5272V36.943C13.2207 36.5491 12.783 36.3301 12.2138 36.3301C11.0319 36.3301 10.1126 37.2495 10.1126 38.5189C10.1126 39.7884 11.0319 40.7077 12.2138 40.7077C12.8268 40.7077 13.2646 40.489 13.5272 40.0949V40.6202H14.4465V38.5189ZM11.0319 38.5189C11.0319 37.7747 11.5135 37.1619 12.3014 37.1619C13.0456 37.1619 13.5711 37.731 13.5711 38.5189C13.5711 39.2632 13.0456 39.876 12.3014 39.876C11.5135 39.8321 11.0319 39.2632 11.0319 38.5189Z" fill="white"/>
<path d="M19.4808 15.7597C19.4808 10.7254 21.8447 6.26008 25.478 3.37074C22.8079 1.26949 19.4371 0 15.7599 0C7.04798 0 0 7.04798 0 15.7597C0 24.4712 7.04798 31.5194 15.7597 31.5194C19.4369 31.5194 22.8077 30.2499 25.478 28.1484C21.8447 25.303 19.4808 20.7939 19.4808 15.7597Z" fill="#FF4201"/>
<path d="M50.9998 15.7597C50.9998 24.4712 43.9519 31.5194 35.2401 31.5194C31.5629 31.5194 28.1922 30.2499 25.5218 28.1484C29.199 25.2593 31.5192 20.7939 31.5192 15.7597C31.5192 10.7254 29.1552 6.26008 25.5218 3.37074C28.192 1.26949 31.5629 0 35.2401 0C43.9519 0 51 7.09185 51 15.7597H50.9998Z" fill="#F79E1B"/>
</svg>
