<svg width="44" height="44" viewBox="0 0 44 44" fill="none" xmlns="http://www.w3.org/2000/svg">
<path d="M25.6667 17.4167C25.6667 17.4167 26.5834 19.25 26.5834 22.9167C26.5834 26.5833 25.6667 28.4167 25.6667 28.4167M18.3334 17.4167C18.3334 17.4167 17.4167 19.25 17.4167 22.9167C17.4167 26.5833 18.3334 28.4167 18.3334 28.4167M11 11C11 21.741 8.49033 36.6667 22 36.6667C35.5097 36.6667 33 21.741 33 11M7.33337 11H36.6667M27.5 11V9.16667C27.5 5.91243 24.4983 5.5 22 5.5C19.5018 5.5 16.5 5.91243 16.5 9.16667V11" stroke="white" stroke-width="1.5" stroke-linecap="round" stroke-linejoin="round"/>
</svg>
