<svg width="45" height="28" viewBox="0 0 45 28" fill="none" xmlns="http://www.w3.org/2000/svg">
<path d="M16.4165 2.97463H28.5839V24.8373H16.4165V2.97463Z" fill="#FF8AA2"/>
<path d="M17.189 13.9056C17.189 9.46361 19.2747 5.52361 22.4806 2.97418C20.1246 1.12014 17.1504 0 13.9058 0C6.21881 0 0 6.21881 0 13.9056C0 21.5922 6.21881 27.8112 13.9056 27.8112C17.1502 27.8112 20.1244 26.6911 22.4806 24.8369C19.2747 22.3262 17.189 18.3476 17.189 13.9056Z" fill="#FD6887"/>
<path d="M44.9999 13.9056C44.9999 21.5922 38.7811 27.8112 31.0943 27.8112C27.8496 27.8112 24.8755 26.6911 22.5192 24.8369C25.7639 22.2876 27.8111 18.3476 27.8111 13.9056C27.8111 9.46361 25.7251 5.52361 22.5192 2.97418C24.8753 1.12014 27.8496 0 31.0943 0C38.7811 0 45 6.25752 45 13.9056H44.9999Z" fill="#FD6887"/>
</svg>
