<svg width="22" height="25" viewBox="0 0 22 25" fill="none" xmlns="http://www.w3.org/2000/svg">
<path fill-rule="evenodd" clip-rule="evenodd" d="M14.9086 0.649077C13.7066 0.212037 12.3623 0 10.9641 0C8.62281 0 6.43255 0.594522 4.80875 1.84445C3.16157 3.11236 2.15541 5.0133 2.15541 7.46639C2.15541 9.91526 1.25727 12.7205 0.293006 15.0108C-0.698116 17.3649 0.927808 20.3019 3.62504 20.3019H6.18224V20.8891C6.18224 22.2302 6.73769 23.2923 7.65615 23.9993C8.55124 24.6882 9.7348 24.9998 10.9641 24.9998C12.1934 24.9998 13.3769 24.6882 14.272 23.9993C15.1905 23.2923 15.7459 22.2302 15.7459 20.8891V20.3019H18.3031C21.0003 20.3019 22.6263 17.3649 21.6351 15.0108C21.4954 14.6788 21.357 14.336 21.2225 13.985C20.7255 14.0994 20.2098 14.1648 19.6806 14.1758C19.8638 14.6704 20.0538 15.1463 20.2434 15.5968C20.8717 17.0891 19.7792 18.7918 18.3031 18.7918H14.9909H6.93727H3.62504C2.1489 18.7918 1.05646 17.0891 1.68474 15.5968C2.67083 13.2547 3.66546 10.2233 3.66546 7.46639C3.66546 5.47159 4.46217 4.01684 5.72984 3.04105C7.02088 2.04727 8.85743 1.51006 10.9641 1.51006C11.9352 1.51006 12.849 1.62422 13.6784 1.84466C14.0418 1.4012 14.4547 0.999857 14.9086 0.649077ZM7.6923 20.3019H14.2359V20.8891C14.2359 21.772 13.8899 22.3878 13.3509 22.8026C12.7886 23.2355 11.9588 23.4898 10.9641 23.4898C9.96943 23.4898 9.13958 23.2355 8.57724 22.8026C8.03829 22.3878 7.6923 21.772 7.6923 20.8891V20.3019Z" fill="white"/>
</svg>
