<svg width="32" height="32" viewBox="0 0 32 32" fill="none" xmlns="http://www.w3.org/2000/svg">
<path d="M16 4C6.82353 4 4 6.19608 4 13.3333C4 18.3177 5.37707 20.8923 9.33333 21.9919V28L14.6832 22.6502C15.1068 22.6613 15.5456 22.6667 16 22.6667C25.1765 22.6667 28 20.4706 28 13.3333C28 6.19608 25.1765 4 16 4Z" fill="white"/>
<path d="M21.3333 13.3333H21.3467M16 13.3333H16.0133M10.6667 13.3333H10.68M4 13.3333C4 6.19608 6.82353 4 16 4C25.1765 4 28 6.19608 28 13.3333C28 20.4706 25.1765 22.6667 16 22.6667C15.5456 22.6667 15.1068 22.6613 14.6832 22.6502L9.33333 28V21.9919C5.37707 20.8923 4 18.3177 4 13.3333Z" stroke="#FF4200" stroke-width="1.5" stroke-linecap="round" stroke-linejoin="round"/>
</svg>
