<svg width="25" height="29" viewBox="0 0 25 29" fill="none" xmlns="http://www.w3.org/2000/svg">
<path d="M21.2796 2.18667C19.9141 0.656165 17.4456 0 14.2876 0H5.12241C4.80997 1.13761e-05 4.50777 0.109622 4.27016 0.309124C4.03254 0.508626 3.8751 0.784934 3.82613 1.08837L0.00990317 24.8879C-0.065951 25.3572 0.303618 25.7822 0.787359 25.7822H6.44565L7.86669 16.9192L7.82259 17.1967C7.92382 16.5703 8.46872 16.1082 9.11397 16.1082H11.8028C17.0849 16.1082 21.2209 13.9985 22.4291 7.89566C22.465 7.71516 22.4961 7.53948 22.5229 7.36785C22.3704 7.28845 22.3704 7.28845 22.5229 7.36785C22.8827 5.11219 22.5205 3.57677 21.2796 2.18667Z" fill="#27346A"/>
<path d="M10.0318 6.55528C10.1865 6.48286 10.3556 6.44532 10.527 6.44543H17.7123C18.5632 6.44543 19.3568 6.49987 20.082 6.61465C20.285 6.64646 20.4869 6.68445 20.6874 6.72855C20.9717 6.79023 21.2526 6.86571 21.5293 6.95473C21.8858 7.07181 22.2178 7.20817 22.523 7.36785C22.8827 5.11132 22.5205 3.57677 21.2796 2.18667C19.9133 0.656165 17.4456 0 14.2876 0H5.12163C4.47628 0 3.92727 0.461985 3.82613 1.08837L0.00990371 24.887C-0.0659504 25.3571 0.303618 25.7815 0.786576 25.7815H6.44565L9.39387 7.39753C9.42285 7.21684 9.49606 7.04577 9.60718 6.89905C9.7183 6.75233 9.86401 6.63436 10.0318 6.55528Z" fill="#38488C"/>
<path d="M22.4291 7.89565C21.2209 13.9976 17.085 16.1082 11.8027 16.1082H9.11313C8.46788 16.1082 7.92288 16.5702 7.82263 17.1967L6.05476 28.2168C5.9887 28.6275 6.31172 28.9997 6.73431 28.9997H11.5041C11.7773 28.9996 12.0416 28.9037 12.2493 28.7292C12.457 28.5546 12.5946 28.3129 12.6373 28.0476L12.6838 27.8086L13.5827 22.2062L13.6407 21.8966C13.6834 21.6312 13.8209 21.3895 14.0286 21.215C14.2363 21.0405 14.5006 20.9445 14.7738 20.9444H15.4876C20.1082 20.9444 23.7261 19.0986 24.7834 13.7603C25.2247 11.5294 24.9963 9.66678 23.8289 8.3585C23.4748 7.96224 23.0351 7.63498 22.5228 7.36785C22.4951 7.54035 22.465 7.71516 22.4291 7.89565Z" fill="#2790C3"/>
<path d="M21.2583 6.87246C21.0699 6.81836 20.8797 6.77048 20.6881 6.72887C20.4875 6.68549 20.2856 6.64776 20.0828 6.61573C19.3567 6.50019 18.5637 6.44565 17.7121 6.44565H10.5276C10.3561 6.44526 10.1868 6.48312 10.0324 6.55637C9.86442 6.63521 9.71855 6.75311 9.60738 6.89987C9.49621 7.04662 9.4231 7.21782 9.39437 7.39862L7.8673 16.9195L7.82319 17.197C7.92365 16.5706 8.46854 16.1085 9.11389 16.1085H11.8035C17.0856 16.1085 21.2215 13.9988 22.4297 7.89597C22.4657 7.71548 22.4959 7.54057 22.5236 7.36817C22.2176 7.20936 21.8865 7.07213 21.5299 6.95581C21.4399 6.92648 21.3494 6.89869 21.2584 6.87246" fill="#293265"/>
</svg>
