<svg width="12" height="16" viewBox="0 0 12 16" fill="none" xmlns="http://www.w3.org/2000/svg">
<path d="M11.0313 10.4399C10.7765 12.9389 8.92833 15.4379 5.68157 15.4379C0.174262 15.4379 -0.951442 9.48803 2.60596 6.44144C5.46062 3.9966 5.72869 3.67484 5.53731 0.648981C5.53291 0.579379 5.61736 0.540658 5.66503 0.591564C7.47401 2.52341 7.92271 4.51263 7.01113 8.80892C6.99902 8.866 7.05323 8.91588 7.10731 8.89394C8.43942 8.35359 9.47043 6.57828 9.56517 5.15212C9.56985 5.08176 9.658 5.05181 9.69843 5.10959C10.4705 6.21295 11.21 8.68714 11.0313 10.4399Z" fill="#FF4201"/>
<path fill-rule="evenodd" clip-rule="evenodd" d="M4.97615 0.684434C4.94093 0.127583 5.6407 -0.257077 6.07545 0.207201C7.03791 1.23503 7.66498 2.31107 7.91206 3.71615C8.10883 4.83511 8.05917 6.13359 7.78794 7.74226C7.98131 7.54336 8.16262 7.31146 8.32502 7.05465C8.71967 6.43056 8.96396 5.71944 9.00412 5.11481C9.02286 4.83272 9.21531 4.62308 9.44344 4.54839C9.67965 4.47106 9.98126 4.53302 10.1591 4.78718C10.5968 5.41275 10.9965 6.37615 11.2649 7.38687C11.534 8.40062 11.6893 9.52957 11.5907 10.4969C11.3141 13.2086 9.28578 16.0001 5.68156 16.0001C2.6902 16.0001 0.80031 14.3585 0.203194 12.2343C-0.383382 10.1475 0.301355 7.67478 2.24021 6.01433C3.7004 4.76377 4.37753 4.14862 4.7157 3.50236C5.03343 2.89517 5.0727 2.21102 4.97615 0.684435L5.53731 0.648943L4.97615 0.684434ZM6.14444 2.12938C6.1239 2.85681 6.01056 3.45337 5.71209 4.02375C5.25041 4.90604 4.36618 5.67418 2.97171 6.86846L2.9717 6.86847C1.35315 8.25461 0.82204 10.2801 1.28579 11.9299C1.73901 13.5423 3.16562 14.8756 5.68156 14.8756C8.57087 14.8756 10.2388 12.6691 10.4719 10.3828C10.552 9.59736 10.4269 8.61286 10.178 7.67549C10.073 7.28009 9.94916 6.90503 9.81606 6.56758C9.67483 6.94529 9.49141 7.31424 9.27548 7.6557C8.80002 8.40755 8.12812 9.0866 7.31865 9.41495C6.79714 9.62649 6.36678 9.13669 6.46109 8.69217C6.91145 6.56964 7.01034 5.08147 6.8045 3.91092C6.68784 3.24752 6.4707 2.67186 6.14444 2.12938Z" fill="#FF4201"/>
</svg>
