<svg width="22" height="25" viewBox="0 0 22 25" fill="none" xmlns="http://www.w3.org/2000/svg">
<path fill-rule="evenodd" clip-rule="evenodd" d="M14.9088 0.649084C13.7068 0.212039 12.3624 0 10.9642 0C8.6229 0 6.43261 0.594528 4.80879 1.84446C3.1616 3.11239 2.15543 5.01335 2.15543 7.46647C2.15543 9.91536 1.25729 12.7207 0.293009 15.011C-0.698123 17.3651 0.927817 20.3021 3.62507 20.3021H6.1823V20.8893C6.1823 22.2305 6.73776 23.2925 7.65623 23.9995C8.55133 24.6885 9.7349 25.0001 10.9642 25.0001C12.1935 25.0001 13.3771 24.6885 14.2722 23.9995C15.1906 23.2925 15.7461 22.2305 15.7461 20.8893V20.3021H18.3033C21.0005 20.3021 22.6265 17.3651 21.6354 15.011C21.4956 14.679 21.3572 14.3361 21.2227 13.9851C20.7257 14.0996 20.21 14.165 19.6808 14.1759C19.864 14.6705 20.0539 15.1465 20.2436 15.5969C20.8719 17.0892 19.7794 18.792 18.3033 18.792H14.9911H6.93734H3.62507C2.14892 18.792 1.05647 17.0892 1.68476 15.5969C2.67085 13.2548 3.6655 10.2234 3.6655 7.46647C3.6655 5.47164 4.46221 4.01688 5.72989 3.04108C7.02095 2.04729 8.85752 1.51007 10.9642 1.51007C11.9353 1.51007 12.8491 1.62424 13.6785 1.84467C14.0419 1.40121 14.4548 0.999867 14.9088 0.649084ZM7.69238 20.3021H14.236V20.8893C14.236 21.7722 13.89 22.388 13.3511 22.8029C12.7887 23.2357 11.9589 23.49 10.9642 23.49C9.96952 23.49 9.13967 23.2357 8.57733 22.8029C8.03836 22.388 7.69238 21.7722 7.69238 20.8893V20.3021Z" fill="#FF4201"/>
</svg>
