<svg width="16" height="16" viewBox="0 0 16 16" fill="none" xmlns="http://www.w3.org/2000/svg">
<path d="M2.92281 2.29223H13.7058C14.8011 2.29223 15.5745 3.36528 15.2282 4.40436L13.8909 8.41607C13.6725 9.07133 13.0593 9.51331 12.3686 9.51331H3.95439M2.92281 2.29223L2.8904 2.06529C2.77746 1.27475 2.10042 0.687547 1.30184 0.687547H0.687723M2.92281 2.29223L3.95439 9.51331M3.95439 9.51331L4.10144 10.5426C4.21438 11.3331 4.89143 11.9203 5.69 11.9203H12.7229M12.7229 11.9203C11.8366 11.9203 11.1182 12.6388 11.1182 13.525C11.1182 14.4113 11.8366 15.1297 12.7229 15.1297C13.6091 15.1297 14.3275 14.4113 14.3275 13.525C14.3275 12.6388 13.6091 11.9203 12.7229 11.9203ZM7.9088 13.525C7.9088 14.4113 7.19036 15.1297 6.30412 15.1297C5.41788 15.1297 4.69943 14.4113 4.69943 13.525C4.69943 12.6388 5.41788 11.9203 6.30412 11.9203C7.19036 11.9203 7.9088 12.6388 7.9088 13.525Z" stroke="#FF4201" stroke-width="1.36656" stroke-linecap="round" stroke-linejoin="round"/>
</svg>
