<svg width="60" height="74" viewBox="0 0 60 74" fill="none" xmlns="http://www.w3.org/2000/svg">
<path d="M59.2 40.7V66.6C59.2 68.5626 58.4204 70.4448 57.0326 71.8326C55.6448 73.2204 53.7626 74 51.8 74C49.8374 74 47.9552 73.2204 46.5674 71.8326C45.1796 70.4448 44.4 68.5626 44.4 66.6V48.1H37V11.1C37 8.1561 38.1695 5.33277 40.2511 3.25111C42.3328 1.16946 45.1561 0 48.1 0L59.2 0V40.7ZM7.4 37C5.4374 37 3.55518 36.2204 2.16741 34.8326C0.77964 33.4448 0 31.5626 0 29.6V3.7C0 2.7187 0.38982 1.77759 1.0837 1.0837C1.77759 0.38982 2.7187 0 3.7 0C4.6813 0 5.62241 0.38982 6.3163 1.0837C7.01018 1.77759 7.4 2.7187 7.4 3.7V18.5H11.1V3.7C11.1 2.7187 11.4898 1.77759 12.1837 1.0837C12.8776 0.38982 13.8187 0 14.8 0C15.7813 0 16.7224 0.38982 17.4163 1.0837C18.1102 1.77759 18.5 2.7187 18.5 3.7V18.5H22.2V3.7C22.2 2.7187 22.5898 1.77759 23.2837 1.0837C23.9776 0.38982 24.9187 0 25.9 0C26.8813 0 27.8224 0.38982 28.5163 1.0837C29.2102 1.77759 29.6 2.7187 29.6 3.7V29.6C29.6 31.5626 28.8204 33.4448 27.4326 34.8326C26.0448 36.2204 24.1626 37 22.2 37V66.6C22.2 68.5626 21.4204 70.4448 20.0326 71.8326C18.6448 73.2204 16.7626 74 14.8 74C12.8374 74 10.9552 73.2204 9.56741 71.8326C8.17964 70.4448 7.4 68.5626 7.4 66.6V37Z" fill="white"/>
</svg>
