<svg width="32" height="32" viewBox="0 0 32 32" fill="none" xmlns="http://www.w3.org/2000/svg">
<path d="M25.2592 12.2498L19.9259 6.9165M25.2592 12.2498L18.5946 18.9144C17.7164 19.7926 16.6504 20.486 15.4265 20.6971C14.1908 20.9102 12.6572 20.9812 11.9259 20.2498C11.1946 19.5185 11.2655 17.985 11.4786 16.7492C11.6897 15.5253 12.3831 14.4593 13.2613 13.5811L19.9259 6.9165M25.2592 12.2498C25.2592 12.2498 29.2592 8.24984 26.5926 5.58317C23.9259 2.9165 19.9259 6.9165 19.9259 6.9165M27.3333 15.9998C27.3333 24.6665 24.6666 27.3332 16 27.3332C7.33329 27.3332 4.66663 24.6665 4.66663 15.9998C4.66663 7.33317 7.33329 4.6665 16 4.6665" stroke="#C9C5C4" stroke-width="1.5" stroke-linecap="round" stroke-linejoin="round"/>
</svg>
