<svg width="164" height="164" viewBox="0 0 164 164" fill="none" xmlns="http://www.w3.org/2000/svg">
<path d="M126.417 67.5473C126.417 67.5473 129.833 79.3424 129.833 99.0832C129.833 118.824 127.176 136.097 124.519 138.565C121.861 141.032 103.259 143.5 82.0002 143.5C60.7409 143.5 42.1391 141.032 39.4816 138.565C36.8242 136.097 34.1668 118.824 34.1668 99.0832C34.1668 79.3424 37.5835 67.5473 37.5835 67.5473M126.417 67.5473C128.517 67.4331 129.956 67.3137 130.593 67.1942C133.63 66.6248 136.667 62.6387 136.667 58.0831C136.667 53.5275 133.63 49.5414 130.593 48.972C127.556 48.4025 106.296 47.8331 82.0002 47.8331C57.7039 47.8331 36.4446 48.4025 33.4076 48.972C30.3705 49.5414 27.3335 53.5275 27.3335 58.0831C27.3335 62.6387 30.3705 66.6248 33.4076 67.1942C34.0446 67.3137 35.4833 67.4331 37.5835 67.5473M126.417 67.5473C118.504 67.9775 101.2 68.3331 82.0002 68.3331C62.8 68.3331 45.4964 67.9775 37.5835 67.5473M81.0838 46.8079C84.8361 32.807 106.341 8.5541 116.591 26.3079C126.842 44.0625 95.0861 50.5605 81.0838 46.8079ZM82.426 46.8079C78.6737 32.807 57.1691 8.5541 46.919 26.3079C36.6683 44.0625 68.4237 50.5605 82.426 46.8079Z" stroke="white" stroke-width="6.35211" stroke-linecap="round" stroke-linejoin="round"/>
<path d="M67.9893 124.195V120.381C65.831 120.203 63.7909 119.716 61.8691 118.917C59.9769 118.089 58.3064 116.995 56.8577 115.635L60.0065 111.334C62.3422 113.551 65.0032 114.896 67.9893 115.369V108.229L65.5945 107.741C62.697 107.209 60.6274 106.322 59.3856 105.08C58.1438 103.839 57.5229 102.065 57.5229 99.7584C57.5229 97.9844 57.9368 96.447 58.7647 95.146C59.6221 93.8451 60.8343 92.8251 62.4013 92.0859C63.9979 91.3468 65.8606 90.9476 67.9893 90.8885V87.2075H70.9607V91.0216C72.7643 91.199 74.553 91.5833 76.327 92.1746C78.101 92.766 79.7419 93.5495 81.2498 94.5252L78.6775 99.1818C77.2879 98.354 75.9574 97.6887 74.6861 97.1861C73.4147 96.6835 72.173 96.3287 70.9607 96.1217V103.173L73.3113 103.572C76.4157 104.164 78.648 105.08 80.008 106.322C81.3976 107.534 82.0924 109.234 82.0924 111.422C82.0924 113.167 81.6341 114.704 80.7176 116.035C79.8306 117.335 78.5593 118.37 76.9036 119.139C75.2478 119.908 73.2669 120.351 70.9607 120.469V124.195H67.9893ZM67.9893 102.818V95.9C66.5406 95.9591 65.3579 96.2843 64.4414 96.8757C63.5544 97.467 63.1109 98.2653 63.1109 99.2705C63.1109 99.9801 63.244 100.571 63.5101 101.044C63.8057 101.488 64.264 101.843 64.8849 102.109C65.5058 102.375 66.3484 102.597 67.4128 102.774L67.9893 102.818ZM70.9607 115.591C72.5573 115.473 73.8287 115.103 74.7748 114.482C75.7505 113.832 76.2383 112.989 76.2383 111.954C76.2383 111.274 76.1053 110.727 75.8392 110.314C75.6026 109.9 75.1444 109.56 74.4643 109.293C73.7843 109.027 72.8234 108.806 71.5816 108.628L70.9607 108.495V115.591Z" fill="white"/>
<path d="M95.8667 121.756C91.5796 121.756 87.869 120.366 84.735 117.587L88.1943 113.551C89.5247 114.675 90.8109 115.488 92.0526 115.99C93.2944 116.493 94.6545 116.744 96.1328 116.744C97.345 116.744 98.3946 116.522 99.2816 116.079C100.169 115.635 100.863 115.015 101.366 114.216C101.898 113.418 102.164 112.487 102.164 111.422C102.164 109.914 101.573 108.673 100.39 107.697C99.2372 106.721 97.7294 106.233 95.8667 106.233C94.9501 106.233 94.0188 106.366 93.0727 106.633C92.1266 106.869 91.1657 107.253 90.19 107.786L86.1542 106.588L86.8638 90.2233H106.422V95.1904H91.7422L91.3874 103.218C92.3927 102.715 93.4127 102.345 94.4475 102.109C95.4823 101.843 96.5615 101.71 97.685 101.71C99.7842 101.71 101.603 102.109 103.14 102.907C104.707 103.676 105.919 104.77 106.777 106.189C107.634 107.608 108.063 109.264 108.063 111.156C108.063 113.255 107.545 115.103 106.511 116.7C105.505 118.296 104.086 119.538 102.253 120.425C100.42 121.312 98.2911 121.756 95.8667 121.756Z" fill="white"/>
</svg>
