<svg width="32" height="32" viewBox="0 0 32 32" fill="none" xmlns="http://www.w3.org/2000/svg">
<path d="M24.6667 13.1799C24.6667 13.1799 25.3334 15.4814 25.3334 19.3333C25.3334 23.1851 24.8149 26.5555 24.2963 27.037C23.7778 27.5184 20.1482 27.9999 16 27.9999C11.8519 27.9999 8.22226 27.5184 7.70374 27.037C7.18523 26.5555 6.66671 23.1851 6.66671 19.3333C6.66671 15.4814 7.33337 13.1799 7.33337 13.1799M24.6667 13.1799C25.0765 13.1577 25.3572 13.1343 25.4815 13.111C26.0741 12.9999 26.6667 12.2221 26.6667 11.3333C26.6667 10.4444 26.0741 9.66658 25.4815 9.55547C24.8889 9.44436 20.7408 9.33325 16 9.33325C11.2593 9.33325 7.11115 9.44436 6.51856 9.55547C5.92597 9.66658 5.33337 10.4444 5.33337 11.3333C5.33337 12.2221 5.92597 12.9999 6.51856 13.111C6.64285 13.1343 6.92357 13.1577 7.33337 13.1799M24.6667 13.1799C23.1227 13.2639 19.7464 13.3333 16 13.3333C12.2537 13.3333 8.87735 13.2639 7.33337 13.1799M15.8212 9.13321C16.5534 6.40134 20.7494 1.66906 22.7494 5.13321C24.7496 8.59753 18.5534 9.86543 15.8212 9.13321ZM16.0831 9.13321C15.351 6.40134 11.155 1.66906 9.15493 5.13321C7.1548 8.59753 13.351 9.86543 16.0831 9.13321Z" stroke="#FF4201" stroke-width="1.5" stroke-linecap="round" stroke-linejoin="round"/>
</svg>
