<svg width="253" height="54" viewBox="0 0 253 54" fill="none" xmlns="http://www.w3.org/2000/svg">
<path d="M0 27C0 15.7508 0 10.1262 2.86474 6.18322C3.78994 4.9098 4.9098 3.78994 6.18322 2.86474C10.1262 0 15.7508 0 27 0H226C237.249 0 242.874 0 246.817 2.86474C248.09 3.78994 249.21 4.9098 250.135 6.18322C253 10.1262 253 15.7508 253 27C253 38.2492 253 43.8738 250.135 47.8168C249.21 49.0902 248.09 50.2101 246.817 51.1353C242.874 54 237.249 54 226 54H27C15.7508 54 10.1262 54 6.18322 51.1353C4.9098 50.2101 3.78994 49.0902 2.86474 47.8168C0 43.8738 0 38.2492 0 27Z" fill="white"/>
</svg>
