<svg width="24" height="24" viewBox="0 0 24 24" fill="none" xmlns="http://www.w3.org/2000/svg">
<path d="M4.7857 5H18.2251C19.5902 5 20.5542 6.33739 20.1225 7.63246L18.4558 12.6325C18.1836 13.4491 17.4193 14 16.5585 14H6.07141M4.7857 5L4.7453 4.71716C4.60455 3.73186 3.7607 3 2.7654 3H1.99999M4.7857 5L6.07141 14M6.07141 14L6.25469 15.2828C6.39544 16.2681 7.23928 17 8.23458 17H17M17 17C15.8954 17 15 17.8954 15 19C15 20.1046 15.8954 21 17 21C18.1046 21 19 20.1046 19 19C19 17.8954 18.1046 17 17 17ZM11 19C11 20.1046 10.1046 21 8.99999 21C7.89542 21 6.99999 20.1046 6.99999 19C6.99999 17.8954 7.89542 17 8.99999 17C10.1046 17 11 17.8954 11 19Z" stroke="white" stroke-width="1.71774" stroke-linecap="round" stroke-linejoin="round"/>
</svg>
