<svg width="150" height="114" viewBox="0 0 150 114" fill="none" xmlns="http://www.w3.org/2000/svg">
<g filter="url(#filter0_d_28_824)">
<path d="M30 37C30 25.7508 30 20.1262 32.8647 16.1832C33.7899 14.9098 34.9098 13.7899 36.1832 12.8647C40.1262 10 45.7508 10 57 10H93C104.249 10 109.874 10 113.817 12.8647C115.09 13.7899 116.21 14.9098 117.135 16.1832C120 20.1262 120 25.7508 120 37C120 48.2492 120 53.8738 117.135 57.8168C116.21 59.0902 115.09 60.2101 113.817 61.1353C109.874 64 104.249 64 93 64H57C45.7508 64 40.1262 64 36.1832 61.1353C34.9098 60.2101 33.7899 59.0902 32.8647 57.8168C30 53.8738 30 48.2492 30 37Z" fill="#FF4201"/>
</g>
<defs>
<filter id="filter0_d_28_824" x="0" y="0" width="150" height="114" filterUnits="userSpaceOnUse" color-interpolation-filters="sRGB">
<feFlood flood-opacity="0" result="BackgroundImageFix"/>
<feColorMatrix in="SourceAlpha" type="matrix" values="0 0 0 0 0 0 0 0 0 0 0 0 0 0 0 0 0 0 127 0" result="hardAlpha"/>
<feOffset dy="20"/>
<feGaussianBlur stdDeviation="15"/>
<feComposite in2="hardAlpha" operator="out"/>
<feColorMatrix type="matrix" values="0 0 0 0 0.176471 0 0 0 0 0.192157 0 0 0 0 0.207843 0 0 0 0.05 0"/>
<feBlend mode="normal" in2="BackgroundImageFix" result="effect1_dropShadow_28_824"/>
<feBlend mode="normal" in="SourceGraphic" in2="effect1_dropShadow_28_824" result="shape"/>
</filter>
</defs>
</svg>
