<svg xmlns="http://www.w3.org/2000/svg" xmlns:xlink="http://www.w3.org/1999/xlink" width="500" zoomAndPan="magnify" viewBox="0 0 255.75 61.499998" height="100" preserveAspectRatio="xMidYMid meet" version="1.0"><defs><g/><clipPath id="adc0fbe53f"><path d="M 0.90625 0 L 254.59375 0 L 254.59375 61.003906 L 0.90625 61.003906 Z M 0.90625 0 " clip-rule="nonzero"/></clipPath><clipPath id="ae8197c0f1"><path d="M 114 11.769531 L 250 11.769531 L 250 55.1875 L 114 55.1875 Z M 114 11.769531 " clip-rule="nonzero"/></clipPath><clipPath id="ea5a1ab551"><path d="M 145.898438 11.769531 L 243.996094 11.769531 C 246.128906 11.769531 248.097656 12.914062 249.152344 14.765625 C 250.210938 16.617188 250.191406 18.894531 249.105469 20.730469 L 234.007812 46.226562 C 230.71875 51.78125 224.742188 55.1875 218.285156 55.1875 L 120.183594 55.1875 C 118.050781 55.1875 116.082031 54.042969 115.027344 52.191406 C 113.972656 50.335938 113.988281 48.0625 115.078125 46.226562 L 130.175781 20.730469 C 133.464844 15.175781 139.441406 11.769531 145.898438 11.769531 Z M 145.898438 11.769531 " clip-rule="nonzero"/></clipPath><clipPath id="0a0ce49b50"><path d="M 6 11.769531 L 131 11.769531 L 131 55.1875 L 6 55.1875 Z M 6 11.769531 " clip-rule="nonzero"/></clipPath><clipPath id="858c72e5f6"><path d="M 37.679688 11.769531 L 125.003906 11.769531 C 127.136719 11.769531 129.105469 12.914062 130.164062 14.765625 C 131.21875 16.617188 131.199219 18.894531 130.113281 20.730469 L 115.015625 46.226562 C 111.726562 51.78125 105.75 55.1875 99.292969 55.1875 L 11.96875 55.1875 C 9.835938 55.1875 7.867188 54.042969 6.8125 52.191406 C 5.753906 50.335938 5.773438 48.0625 6.859375 46.226562 L 21.957031 20.730469 C 25.246094 15.175781 31.226562 11.769531 37.679688 11.769531 Z M 37.679688 11.769531 " clip-rule="nonzero"/></clipPath></defs><g clip-path="url(#adc0fbe53f)"><path fill="#ffffff" d="M 0.90625 0 L 254.59375 0 L 254.59375 61.003906 L 0.90625 61.003906 Z M 0.90625 0 " fill-opacity="1" fill-rule="nonzero"/></g><g clip-path="url(#ae8197c0f1)"><g clip-path="url(#ea5a1ab551)"><path fill="#000000" d="M 109.769531 11.769531 L 254.445312 11.769531 L 254.445312 55.1875 L 109.769531 55.1875 Z M 109.769531 11.769531 " fill-opacity="1" fill-rule="nonzero"/></g></g><g clip-path="url(#0a0ce49b50)"><g clip-path="url(#858c72e5f6)"><path fill="#8c52ff" d="M 1.554688 11.769531 L 135.371094 11.769531 L 135.371094 55.1875 L 1.554688 55.1875 Z M 1.554688 11.769531 " fill-opacity="1" fill-rule="nonzero"/></g></g><g fill="#ffffff" fill-opacity="1"><g transform="translate(20.745651, 43.573077)"><g><path d="M 12.890625 -17.234375 C 15.296875 -17.234375 17.226562 -16.425781 18.6875 -14.8125 C 20.15625 -13.195312 20.890625 -11.070312 20.890625 -8.4375 C 20.890625 -5.84375 20.171875 -3.753906 18.734375 -2.171875 C 17.304688 -0.597656 15.398438 0.1875 13.015625 0.1875 C 10.785156 0.1875 9.050781 -0.632812 7.8125 -2.28125 L 7.8125 0 L 2.34375 0 L 2.34375 -23.453125 L 7.8125 -23.453125 L 7.8125 -14.796875 C 9.070312 -16.421875 10.765625 -17.234375 12.890625 -17.234375 Z M 11.5625 -4.140625 C 12.707031 -4.140625 13.628906 -4.554688 14.328125 -5.390625 C 15.035156 -6.222656 15.390625 -7.289062 15.390625 -8.59375 C 15.390625 -9.90625 15.035156 -10.96875 14.328125 -11.78125 C 13.628906 -12.601562 12.707031 -13.015625 11.5625 -13.015625 C 10.46875 -13.015625 9.566406 -12.601562 8.859375 -11.78125 C 8.160156 -10.96875 7.8125 -9.90625 7.8125 -8.59375 C 7.8125 -7.269531 8.15625 -6.195312 8.84375 -5.375 C 9.539062 -4.550781 10.445312 -4.140625 11.5625 -4.140625 Z M 11.5625 -4.140625 "/></g></g></g><g fill="#ffffff" fill-opacity="1"><g transform="translate(40.586339, 43.573077)"><g><path d="M 18.78125 -17.03125 L 18.78125 0 L 13.3125 0 L 13.3125 -2.8125 C 12.144531 -0.789062 10.300781 0.21875 7.78125 0.21875 C 5.925781 0.21875 4.441406 -0.367188 3.328125 -1.546875 C 2.222656 -2.722656 1.671875 -4.304688 1.671875 -6.296875 L 1.671875 -17.03125 L 7.140625 -17.03125 L 7.140625 -7.84375 C 7.140625 -6.832031 7.394531 -6.035156 7.90625 -5.453125 C 8.425781 -4.867188 9.117188 -4.578125 9.984375 -4.578125 C 11.015625 -4.597656 11.828125 -4.984375 12.421875 -5.734375 C 13.015625 -6.484375 13.3125 -7.445312 13.3125 -8.625 L 13.3125 -17.03125 Z M 18.78125 -17.03125 "/></g></g></g><g fill="#ffffff" fill-opacity="1"><g transform="translate(59.731933, 43.573077)"><g><path d="M 9.640625 -17.234375 C 12.585938 -17.234375 14.800781 -16.328125 16.28125 -14.515625 C 17.769531 -12.703125 18.421875 -10.210938 18.234375 -7.046875 L 6.265625 -7.046875 C 6.535156 -6.035156 7.015625 -5.253906 7.703125 -4.703125 C 8.398438 -4.160156 9.253906 -3.890625 10.265625 -3.890625 C 11.828125 -3.890625 13.1875 -4.46875 14.34375 -5.625 L 17.234375 -2.8125 C 15.398438 -0.8125 12.921875 0.1875 9.796875 0.1875 C 7.035156 0.1875 4.835938 -0.597656 3.203125 -2.171875 C 1.578125 -3.753906 0.765625 -5.851562 0.765625 -8.46875 C 0.765625 -11.101562 1.578125 -13.222656 3.203125 -14.828125 C 4.835938 -16.429688 6.984375 -17.234375 9.640625 -17.234375 Z M 6.15625 -9.984375 L 12.984375 -9.984375 C 12.984375 -11.015625 12.679688 -11.847656 12.078125 -12.484375 C 11.484375 -13.117188 10.691406 -13.4375 9.703125 -13.4375 C 8.773438 -13.4375 7.992188 -13.125 7.359375 -12.5 C 6.734375 -11.875 6.332031 -11.035156 6.15625 -9.984375 Z M 6.15625 -9.984375 "/></g></g></g><g fill="#ffffff" fill-opacity="1"><g transform="translate(76.950252, 43.573077)"><g><path d="M 13.34375 -17.296875 C 15.21875 -17.296875 16.722656 -16.695312 17.859375 -15.5 C 18.992188 -14.3125 19.5625 -12.726562 19.5625 -10.75 L 19.5625 0 L 14.125 0 L 14.125 -9.234375 C 14.125 -10.222656 13.851562 -11.003906 13.3125 -11.578125 C 12.78125 -12.160156 12.050781 -12.453125 11.125 -12.453125 C 10.15625 -12.453125 9.359375 -12.132812 8.734375 -11.5 C 8.117188 -10.875 7.757812 -10.046875 7.65625 -9.015625 L 7.65625 0 L 2.1875 0 L 2.1875 -17.03125 L 7.65625 -17.03125 L 7.65625 -14.25 C 8.851562 -16.238281 10.75 -17.253906 13.34375 -17.296875 Z M 13.34375 -17.296875 "/></g></g></g><g fill="#ffffff" fill-opacity="1"><g transform="translate(96.4118, 43.573077)"><g><path d="M 10.078125 -17.234375 C 12.859375 -17.234375 15.101562 -16.4375 16.8125 -14.84375 C 18.519531 -13.25 19.375 -11.144531 19.375 -8.53125 C 19.375 -5.914062 18.519531 -3.804688 16.8125 -2.203125 C 15.101562 -0.609375 12.859375 0.1875 10.078125 0.1875 C 7.273438 0.1875 5.019531 -0.609375 3.3125 -2.203125 C 1.613281 -3.804688 0.765625 -5.914062 0.765625 -8.53125 C 0.765625 -11.144531 1.613281 -13.25 3.3125 -14.84375 C 5.019531 -16.4375 7.273438 -17.234375 10.078125 -17.234375 Z M 10.078125 -12.890625 C 8.941406 -12.890625 8.019531 -12.476562 7.3125 -11.65625 C 6.613281 -10.84375 6.265625 -9.78125 6.265625 -8.46875 C 6.265625 -7.144531 6.613281 -6.078125 7.3125 -5.265625 C 8.019531 -4.453125 8.941406 -4.046875 10.078125 -4.046875 C 11.203125 -4.046875 12.113281 -4.453125 12.8125 -5.265625 C 13.519531 -6.078125 13.875 -7.144531 13.875 -8.46875 C 13.875 -9.78125 13.519531 -10.84375 12.8125 -11.65625 C 12.113281 -12.476562 11.203125 -12.890625 10.078125 -12.890625 Z M 10.078125 -12.890625 "/></g></g></g><g fill="#ffffff" fill-opacity="1"><g transform="translate(113.995324, 44.614006)"><g><path d="M 15.765625 -8.265625 L 15.765625 0 L 9.28125 0 L 9.28125 -8.078125 L -0.1875 -25.59375 L 6.328125 -25.59375 L 12.5 -14.4375 L 18.53125 -25.59375 L 25.046875 -25.59375 Z M 15.765625 -8.265625 "/></g></g></g><g fill="#ffffff" fill-opacity="1"><g transform="translate(136.77056, 44.614006)"><g><path d="M 11.109375 -19.921875 C 13.066406 -19.921875 14.804688 -19.535156 16.328125 -18.765625 C 17.847656 -18.003906 19.035156 -16.914062 19.890625 -15.5 L 15.359375 -12.765625 C 14.378906 -14.128906 13.050781 -14.8125 11.375 -14.8125 C 10.15625 -14.8125 9.160156 -14.351562 8.390625 -13.4375 C 7.617188 -12.519531 7.234375 -11.316406 7.234375 -9.828125 C 7.234375 -8.316406 7.609375 -7.101562 8.359375 -6.1875 C 9.117188 -5.28125 10.125 -4.828125 11.375 -4.828125 C 13.226562 -4.828125 14.566406 -5.570312 15.390625 -7.0625 L 20 -4.34375 C 19.195312 -2.882812 18.019531 -1.757812 16.46875 -0.96875 C 14.925781 -0.175781 13.117188 0.21875 11.046875 0.21875 C 7.992188 0.21875 5.535156 -0.695312 3.671875 -2.53125 C 1.804688 -4.375 0.875 -6.796875 0.875 -9.796875 C 0.875 -12.816406 1.816406 -15.257812 3.703125 -17.125 C 5.597656 -18.988281 8.066406 -19.921875 11.109375 -19.921875 Z M 11.109375 -19.921875 "/></g></g></g><g fill="#ffffff" fill-opacity="1"><g transform="translate(155.231918, 44.614006)"><g><path d="M 11.15625 -19.921875 C 14.5625 -19.921875 17.125 -18.875 18.84375 -16.78125 C 20.5625 -14.6875 21.3125 -11.8125 21.09375 -8.15625 L 7.234375 -8.15625 C 7.554688 -6.976562 8.117188 -6.070312 8.921875 -5.4375 C 9.722656 -4.8125 10.707031 -4.5 11.875 -4.5 C 13.6875 -4.5 15.257812 -5.171875 16.59375 -6.515625 L 19.921875 -3.25 C 17.804688 -0.9375 14.941406 0.21875 11.328125 0.21875 C 8.140625 0.21875 5.597656 -0.691406 3.703125 -2.515625 C 1.816406 -4.347656 0.875 -6.773438 0.875 -9.796875 C 0.875 -12.847656 1.816406 -15.296875 3.703125 -17.140625 C 5.597656 -18.992188 8.082031 -19.921875 11.15625 -19.921875 Z M 7.125 -11.546875 L 15.03125 -11.546875 C 15.03125 -12.742188 14.679688 -13.707031 13.984375 -14.4375 C 13.285156 -15.164062 12.363281 -15.53125 11.21875 -15.53125 C 10.144531 -15.53125 9.242188 -15.171875 8.515625 -14.453125 C 7.785156 -13.734375 7.320312 -12.765625 7.125 -11.546875 Z M 7.125 -11.546875 "/></g></g></g><g fill="#ffffff" fill-opacity="1"><g transform="translate(175.155615, 44.614006)"><g><path d="M 8.84375 -19.703125 L 8.84375 -16.375 C 10.238281 -18.738281 12.375 -19.945312 15.25 -20 L 15.25 -14.296875 C 13.445312 -14.460938 11.972656 -14.160156 10.828125 -13.390625 C 9.679688 -12.628906 9.019531 -11.539062 8.84375 -10.125 L 8.84375 0 L 2.515625 0 L 2.515625 -19.703125 Z M 8.84375 -19.703125 "/></g></g></g><g fill="#ffffff" fill-opacity="1"><g transform="translate(188.681608, 44.614006)"><g><path d="M 11.109375 -19.921875 C 13.066406 -19.921875 14.804688 -19.535156 16.328125 -18.765625 C 17.847656 -18.003906 19.035156 -16.914062 19.890625 -15.5 L 15.359375 -12.765625 C 14.378906 -14.128906 13.050781 -14.8125 11.375 -14.8125 C 10.15625 -14.8125 9.160156 -14.351562 8.390625 -13.4375 C 7.617188 -12.519531 7.234375 -11.316406 7.234375 -9.828125 C 7.234375 -8.316406 7.609375 -7.101562 8.359375 -6.1875 C 9.117188 -5.28125 10.125 -4.828125 11.375 -4.828125 C 13.226562 -4.828125 14.566406 -5.570312 15.390625 -7.0625 L 20 -4.34375 C 19.195312 -2.882812 18.019531 -1.757812 16.46875 -0.96875 C 14.925781 -0.175781 13.117188 0.21875 11.046875 0.21875 C 7.992188 0.21875 5.535156 -0.695312 3.671875 -2.53125 C 1.804688 -4.375 0.875 -6.796875 0.875 -9.796875 C 0.875 -12.816406 1.816406 -15.257812 3.703125 -17.125 C 5.597656 -18.988281 8.066406 -19.921875 11.109375 -19.921875 Z M 11.109375 -19.921875 "/></g></g></g><g fill="#ffffff" fill-opacity="1"><g transform="translate(207.142966, 44.614006)"><g><path d="M 11.375 -20 C 14.070312 -20 16.171875 -19.367188 17.671875 -18.109375 C 19.171875 -16.859375 19.9375 -15.113281 19.96875 -12.875 L 19.96875 0 L 13.78125 0 L 13.78125 -2.265625 C 12.488281 -0.554688 10.476562 0.296875 7.75 0.296875 C 5.675781 0.296875 4.03125 -0.273438 2.8125 -1.421875 C 1.59375 -2.566406 0.984375 -4.054688 0.984375 -5.890625 C 0.984375 -7.765625 1.632812 -9.21875 2.9375 -10.25 C 4.25 -11.289062 6.125 -11.820312 8.5625 -11.84375 L 13.75 -11.84375 L 13.75 -12.140625 C 13.75 -13.109375 13.425781 -13.867188 12.78125 -14.421875 C 12.132812 -14.972656 11.175781 -15.25 9.90625 -15.25 C 8.125 -15.25 6.160156 -14.695312 4.015625 -13.59375 L 2.234375 -17.765625 C 5.421875 -19.253906 8.46875 -20 11.375 -20 Z M 9.6875 -3.984375 C 10.6875 -3.984375 11.5625 -4.234375 12.3125 -4.734375 C 13.070312 -5.234375 13.550781 -5.882812 13.75 -6.6875 L 13.75 -8.453125 L 9.765625 -8.453125 C 7.859375 -8.453125 6.90625 -7.742188 6.90625 -6.328125 C 6.90625 -5.597656 7.148438 -5.023438 7.640625 -4.609375 C 8.128906 -4.191406 8.8125 -3.984375 9.6875 -3.984375 Z M 9.6875 -3.984375 "/></g></g></g></svg>